<svg id="Title_Icon" viewBox="0 0 64 64" xmlns="http://www.w3.org/2000/svg"><g data-name="Glyph"><path d="M56 32.06V16.23A8.24 8.24 0 0 0 47.77 8H10.23A8.24 8.24 0 0 0 2 16.23v21.54A8.24 8.24 0 0 0 10.23 46h26.13A13 13 0 1 0 56 32.06Zm-21.81-4.42a8.11 8.11 0 0 1-10.37 0L6.63 42.86a6.38 6.38 0 0 1-1.43-1.41l17.09-15.1-16.77-14.2a6.56 6.56 0 0 1 1.57-1.3L25 26a6.14 6.14 0 0 0 8 0l17.91-15.15a6.56 6.56 0 0 1 1.57 1.3L35.74 26.33l6.51 5.56a12.46 12.46 0 0 0-1.67 1.21ZM49 54a11 11 0 1 1 11-11 11 11 0 0 1-11 11Z" fill="#fff" class="fill-000000"></path><path d="M53.77 38.05a4.83 4.83 0 0 0-9.54 0A2.78 2.78 0 0 0 42 40.77v6.46A2.77 2.77 0 0 0 44.77 50h8.46A2.77 2.77 0 0 0 56 47.23v-6.46a2.78 2.78 0 0 0-2.23-2.72ZM50 45a1 1 0 0 1-2 0v-2a1 1 0 0 1 2 0Zm-3.67-7a2.78 2.78 0 0 1 5.34 0Z" fill="#fff" class="fill-000000"></path></g></svg>